<?xml version="1.0" standalone="no"?>
<!DOCTYPE svg PUBLIC "-//W3C//DTD SVG 1.1//EN" "http://www.w3.org/Graphics/SVG/1.1/DTD/svg11.dtd" >
<!--
2013-9-30: Created.
-->
<svg>
<metadata>
Created by iconfont
</metadata>
<defs>

<font id="iconfont" horiz-adv-x="1024" >
  <font-face
    font-family="iconfont"
    font-weight="500"
    font-stretch="normal"
    units-per-em="1024"
    ascent="896"
    descent="-128"
  />
    <missing-glyph />
    
    <glyph glyph-name="modal-min" unicode="&#59074;" d="M0 512m112 0l800 0q112 0 112-112l0 0q0-112-112-112l-800 0q-112 0-112 112l0 0q0 112 112 112Z"  horiz-adv-x="1024" />

    
    <glyph glyph-name="modal-close" unicode="&#59072;" d="M192.244056 860.546902L510.777964 542.0768410000001 829.311871 860.546902a112.626541 112.626541 0 1 0 159.235031-159.235031L670.076841 382.777964l318.470061-318.533908a112.626541 112.626541 0 0 0-159.235031-159.23503L510.777964 223.47908600000005l-318.533908-318.47006A112.626541 112.626541 0 0 0 33.009026 64.18020899999999L351.479086 382.777964 33.009026 701.311871A112.626541 112.626541 0 0 0 192.180209 860.546902z"  horiz-adv-x="1026" />

    
    <glyph glyph-name="modal-max" unicode="&#59073;" d="M98.752 320c54.592 0 98.816-44.224 98.816-98.752l-0.064-139.2 139.136 0.064a98.752 98.752 0 0 0 0-197.568H116.928A98.56 98.56 0 0 0 38.592-76.79999999999995 98.56 98.56 0 0 0 0 1.47199999999998v219.776C0 275.77599999999995 44.224 320 98.752 320zM912.64 320c54.592 0 98.816-44.224 98.816-98.752v-219.776c0-31.872-15.168-60.288-38.592-78.336a98.56 98.56 0 0 0-78.336-38.592h-219.776a98.752 98.752 0 1 0 0 197.568h139.2l-0.064 139.136c0 54.528 44.16 98.752 98.752 98.752z m-576 576a98.752 98.752 0 0 0 0-197.568l-139.136 0.064V559.36A98.752 98.752 0 0 0 0 559.36V779.072C0 811.008 15.104 839.36 38.592 857.408A98.56 98.56 0 0 0 116.928 896H336.64z m557.888 0c31.872 0 60.288-15.104 78.336-38.592 23.424-18.048 38.592-46.4 38.592-78.336V559.36a98.752 98.752 0 0 0-197.568 0V698.496h-139.136a98.752 98.752 0 1 0 0 197.504z"  horiz-adv-x="1024" />

    
    <glyph glyph-name="delete" unicode="&#59070;" d="M896 576v-576a128 128 0 0 0-128-128H256a128 128 0 0 0-128 128V576h768zM384 448h-64v-448h64V448z m320 0h-64v-448h64V448zM576 896a128 128 0 0 0 128-128h192a64 64 0 1 0 0-128H128a64 64 0 1 0 0 128h192A128 128 0 0 0 448 896h128z"  horiz-adv-x="1024" />

    
    <glyph glyph-name="tag-close" unicode="&#59069;" d="M693.376 384l293.12 293.12A128.256 128.256 0 0 1 805.248 858.368l-293.12-293.12L218.88 858.496A128 128 0 1 1 37.632 677.12L330.752 384 37.504 90.88A128 128 0 1 1 218.88-90.36800000000005L512 202.75199999999995l293.248-293.12A128 128 0 1 1 986.496 90.88L693.376 384z"  horiz-adv-x="1024" />

    
    <glyph glyph-name="18x18xiangyoufanye" unicode="&#59067;" d="M252.586667 879.104l-0.910223-0.910222-8.078222-8.362667a56.888889 56.888889 0 0 1 0-79.36L639.317333 384l-395.719111-406.641778a56.888889 56.888889 0 0 1 0-79.36l7.907556-8.135111a56.888889 56.888889 0 0 1 81.521778 0l444.416 456.647111a56.888889 56.888889 0 0 1 0 79.36l-7.964445 8.135111-1.308444 1.308445L333.027556 878.364444A56.888889 56.888889 0 0 1 252.586667 879.104z"  horiz-adv-x="1024" />

    
    <glyph glyph-name="18x18xiangzuofanye" unicode="&#59068;" d="M771.413333 879.104l0.910223-0.910222 8.078222-8.362667a56.888889 56.888889 0 0 0 0-79.36L384.682667 384l395.719111-406.641778a56.888889 56.888889 0 0 0 0-79.36l-7.907556-8.135111a56.888889 56.888889 0 0 0-81.521778 0L246.556444 346.453333a56.888889 56.888889 0 0 0 0 79.36l7.964445 8.135111 1.308444 1.308445L690.972444 878.364444A56.888889 56.888889 0 0 0 771.413333 879.104z"  horiz-adv-x="1024" />

    
    <glyph glyph-name="video-new-close" unicode="&#58881;" d="M512 896c282.784 0 512-229.216 512-512s-229.216-512-512-512S0 101.21600000000001 0 384 229.216 896 512 896z m0-64C264.576 832 64 631.424 64 384s200.576-448 448-448 448 200.576 448 448S759.424 832 512 832z m147.712-244.352l45.28-45.248L546.56 384l158.4-158.4-45.28-45.248-158.4 158.4-158.4-158.4-45.216 45.248 158.4 158.4-158.4 158.4 45.248 45.248 158.4-158.4 158.4 158.4z"  horiz-adv-x="1024" />

    
    <glyph glyph-name="hotline" unicode="&#59065;" d="M512 896C230.4 896 0 665.6 0 384s230.4-512 512-512 512 230.4 512 512S793.6 896 512 896z m243.2-704l-25.6-25.6-6.4-6.4-6.4-6.4c-32-32-140.8-76.8-332.8 108.8-179.2 179.2-128 288-102.4 320l44.8 44.8c19.2 19.2 51.2 19.2 70.4 0l64-64c19.2-19.2 19.2-51.2 0-70.4l-38.4-32-6.4-12.8c-19.2-19.2-19.2-25.6 6.4-51.2l96-89.6c44.8-38.4 51.2-38.4 70.4-25.6l32 38.4c19.2 19.2 51.2 25.6 70.4 6.4l64-64c19.2-19.2 19.2-51.2 0-70.4z"  horiz-adv-x="1024" />

    
    <glyph glyph-name="reservation" unicode="&#59066;" d="M512 896c282.770286 0 512-229.229714 512-512S794.770286-128 512-128 0 101.22971399999994 0 384 229.229714 896 512 896z m254.774857-497.353143H256v-227.017143c0-29.842286 12.672-42.587429 28.361143-42.587428h454.034286c15.689143 0 28.379429 12.672 28.379428 42.605714V398.628571z m-425.6 170.276572h-56.740571a28.342857 28.342857 0 0 1-28.379429-28.361143v-113.481143h510.774857v113.481143a28.434286 28.434286 0 0 1-28.434285 28.361143h-56.740572v-42.587429a56.758857 56.758857 0 0 0-113.462857 0v42.587429h-113.554286v-43.629715a56.758857 56.758857 0 0 0-113.462857 0v43.629715z m56.740572 70.948571a28.342857 28.342857 0 0 1-28.379429-28.361143v-85.101714a28.342857 28.342857 0 1 1 56.740571-0.073143v85.174857a28.342857 28.342857 0 0 1-28.361142 28.361143z m226.944 0a28.342857 28.342857 0 0 1-28.361143-28.361143v-85.101714c0-15.707429 12.726857-28.434286 28.361143-28.434286a28.342857 28.342857 0 0 1 28.379428 28.361143v85.174857a28.342857 28.342857 0 0 1-28.379428 28.361143z"  horiz-adv-x="1024" />

    
    <glyph glyph-name="play" unicode="&#59064;" d="M512.056889 896C229.831111 896 0 666.339556 0 383.94311100000004 0.113778 101.66044399999998 229.831111-128 512.056889-128 794.339556-128 1024 101.66044399999998 1024 383.94311100000004 1024 666.168889 794.339556 896 512.056889 896z m222.094222-541.582222l-320.853333-185.230222a34.133333 34.133333 0 0 0-51.029334 29.525333V569.173333a34.133333 34.133333 0 0 0 51.086223 29.525334l320.796444-185.230223a34.133333 34.133333 0 0 0 0-59.050666z"  horiz-adv-x="1024" />

    
    <glyph glyph-name="breadRight" unicode="&#59062;" d="M228.702304 884.395034a63.997973 63.997973 0 0 1-79.698809-99.836838l6.314467-4.949177L720.377401 384.016213 155.317962-11.576593000000003a63.997973 63.997973 0 0 1-19.967368-82.258729l4.266531-6.82645a63.997973 63.997973 0 0 1 82.258729-19.967368l6.82645 4.266531 639.979734 447.985814a63.997973 63.997973 0 0 1 6.399798 99.751508l-6.399798 5.119838-639.979734 447.985814z"  horiz-adv-x="1024" />

    
    <glyph glyph-name="breadLeft" unicode="&#59063;" d="M783.517538 748.701538L486.793846 405.267692l267.027692-314.052923a78.769231 78.769231 0 0 0-0.787692-102.951384l-11.264-12.918154a72.625231 72.625231 0 0 0-110.513231 1.575384L305.624615 369.74276899999995a66.717538 66.717538 0 0 0-13.548307 58.289231 77.430154 77.430154 0 0 0 17.644307 38.833231l340.440616 401.723077A77.981538 77.981538 0 0 0 768.472615 868.982154l14.966154-17.329231a78.769231 78.769231 0 0 0 0-103.030154z"  horiz-adv-x="1024" />

    
    <glyph glyph-name="2828tupian" unicode="&#59054;" d="M716.8 522.971429c54.601143 0 102.4 47.798857 102.4 102.4 0 54.601143-47.798857 102.4-102.4 102.4-54.601143 0-102.4-47.798857-102.4-102.4 0-54.601143 47.798857-102.4 102.4-102.4z m-273.078857-266.24l-68.242286 109.238857c0 6.802286-6.838857 6.802286-13.677714 13.641143-20.48 6.838857-40.96 6.838857-47.762286-13.641143L136.521143 92.891429v-13.641143c0-20.48 13.677714-34.157714 34.157714-34.157715h696.32c13.641143 0 27.282286 13.677714 27.282286 27.318858 0 6.838857 0 13.641143-6.802286 13.641142L737.28 297.691429c-6.838857 13.641143-27.318857 13.641143-40.96 6.838857l-6.838857-6.838857-13.641143-13.641143-95.561143-150.198857c-13.677714-13.641143-34.157714-20.48-47.798857-6.838858-6.838857 0-6.838857 6.838857-6.838857 13.677715l-81.92 116.041143z"  horiz-adv-x="1024" />

    
    <glyph glyph-name="1818yinpin" unicode="&#59055;" d="M916.992 246.442667c-30.037333 0-50.119111 22.584889-50.119111 56.376889V472.064c0 28.16 20.081778 56.433778 50.119111 56.433778 25.031111 0 50.119111-22.584889 50.119111-56.433778v-174.819556c0-28.216889-20.024889-50.801778-50.119111-50.801777z m-200.476444-140.970667c-30.037333 0-50.119111 22.584889-50.119112 56.433778v451.128889c0 28.216889 20.081778 56.376889 50.062223 56.376889 25.088 0 50.176-22.528 50.176-56.32v-451.185778c0-33.848889-20.081778-56.433778-50.119111-56.433778z m-203.662223-112.753778c-30.094222 0-50.119111 22.528-50.119111 56.32V725.902222c0 28.216889 20.024889 56.376889 50.062222 56.376889 25.144889 0 50.176-22.528 50.176-56.376889v-676.750222c0-33.848889-20.024889-56.376889-50.119111-56.376889z m-203.662222 112.753778c-30.094222 0-50.062222 22.584889-50.062222 56.433778v451.128889c0 28.216889 19.968 56.376889 50.062222 56.376889 25.031111 0 53.304889-22.528 53.304889-56.32v-451.185778c0-33.848889-23.210667-56.433778-53.304889-56.433778z m-202.183111 140.970667c-30.037333 0-50.119111 22.584889-50.119111 56.376889V472.064c0 28.16 20.081778 56.433778 50.119111 56.433778 25.088 0 53.304889-22.584889 53.304889-56.433778v-174.819556c0-28.216889-23.210667-50.801778-53.304889-50.801777z"  horiz-adv-x="1024" />

    
    <glyph glyph-name="1818qitawenjian" unicode="&#59056;" d="M881.777778 500.679111c0 13.368889-5.688889 26.055111-15.758222 34.929778L574.464 825.457778a47.047111 47.047111 0 0 1-35.669333 13.482666L535.381333 839.111111H189.212444a47.104 47.104 0 0 1-33.166222-13.653333 46.535111 46.535111 0 0 1-13.767111-32.995556v-816.924444c0-12.344889 4.949333-24.234667 13.767111-32.995556 8.760889-8.760889 20.707556-13.653333 33.166222-13.653333h645.575112a46.819556 46.819556 0 0 1 46.933333 46.648889V489.073778a45.283556 45.283556 0 0 1-0.341333 5.461333 45.511111 45.511111 0 0 1 0.455111 6.257778zM288.938667 358.855111h275.797333c25.941333 0 46.990222-20.878222 46.990222-46.648889 0-25.827556-21.048889-46.705778-46.990222-46.705778H288.995556a46.819556 46.819556 0 0 0-46.933334 46.648889c0 25.827556 21.048889 46.648889 46.933334 46.648889z m443.050666-260.778667H280.120889a46.819556 46.819556 0 0 0-46.933333 46.648889c0 25.827556 21.048889 46.705778 46.933333 46.705778h451.868444c25.941333 0 46.990222-20.878222 46.990223-46.648889 0-25.770667-21.048889-46.648889-46.990223-46.648889zM588.231111 547.384889V679.765333l133.12-132.380444h-133.12z"  horiz-adv-x="1024" />

    
    <glyph glyph-name="1818shipin" unicode="&#59057;" d="M627.939556 732.444444a113.777778 113.777778 0 0 0 113.777777-113.777777v-449.422223a113.777778 113.777778 0 0 0-113.777777-113.777777H128a113.777778 113.777778 0 0 0-113.777778 113.777777v449.422223a113.777778 113.777778 0 0 0 113.777778 113.777777h499.939556z m378.424888-158.037333a56.888889 56.888889 0 0 0 3.413334-19.342222v-322.218667a56.888889 56.888889 0 0 0-76.231111-53.475555l-40.106667 14.449777a113.777778 113.777778 0 0 0-75.093333 107.008V487.082667a113.777778 113.777778 0 0 0 75.093333 106.951111l40.106667 14.506666a56.888889 56.888889 0 0 0 72.817777-34.133333zM224.824889 619.633778a56.888889 56.888889 0 0 1-57.457778-56.433778 56.888889 56.888889 0 0 1 57.457778-56.433778 56.888889 56.888889 0 0 1 57.457778 56.433778 56.888889 56.888889 0 0 1-57.457778 56.433778z"  horiz-adv-x="1024" />

    
    <glyph glyph-name="1818ex" unicode="&#59058;" d="M386.275556 42.666667l142.222222 241.322666L670.151111 42.666667h111.104L583.111111 374.670222l185.344 316.017778h-110.648889L528.384 465.749333 399.132444 690.744889H287.971556l185.799111-316.017778L275.569778 42.666667z"  horiz-adv-x="1024" />

    
    <glyph glyph-name="1818ppt" unicode="&#59059;" d="M382.691556 20.48v252.871111h149.333333c66.616889 1.137778 117.304889 22.528 151.950222 64 33.792 39.367111 50.688 83.057778 50.688 131.072 0 35.555556-6.656 66.389333-19.968 92.444445-12.743111 26.965333-29.354667 47.729778-49.834667 62.236444-24.291556 19.285333-48.241778 32.028444-71.964444 38.229333A375.409778 375.409778 0 0 1 519.111111 668.444444H284.444444v-647.964444h98.247112zM527.928889 366.193778H382.691556v209.351111h141.767111c26.680889 0.568889 50.062222-5.518222 70.200889-18.261333 13.368889-7.736889 23.722667-18.204444 31.118222-31.573334 7.111111-14.791111 10.695111-32.995556 10.695111-54.613333 0-26.168889-8.760889-49.834667-26.225778-71.111111-18.375111-21.959111-45.795556-33.223111-82.261333-33.848889z"  horiz-adv-x="1024" />

    
    <glyph glyph-name="1818world" unicode="&#59060;" d="M367.502222 42.666667l124.017778 467.057777h1.820444L616.903111 42.666667h82.204445l161.792 647.964444h-103.537778l-102.229334-460.401778h-1.820444L527.985778 690.631111h-71.111111l-125.724445-460.458667h-1.820444L227.555556 690.631111H124.017778L285.752889 42.666667z"  horiz-adv-x="1024" />

    
    <glyph glyph-name="2828pdf" unicode="&#59061;" d="M184.941714 237.714286v110.226285h71.204572c69.997714 0 104.996571 29.769143 104.996571 88.905143 0 58.733714-34.998857 88.100571-104.192 88.100572H137.874286V237.714286h47.067428z m68.388572 150.454857h-68.388572v96.548571h68.388572c20.516571 0 35.803429-3.620571 45.458285-11.264 9.654857-7.241143 14.884571-19.309714 14.884572-36.608 0-17.298286-4.827429-29.769143-14.482286-37.412571-9.654857-7.241143-24.941714-11.264-45.860571-11.264zM506.368 237.714286c46.665143 0 81.664 12.873143 105.801143 38.619428 22.930286 24.539429 34.596571 59.538286 34.596571 104.996572 0 45.860571-11.666286 80.859429-34.596571 104.996571-24.137143 25.746286-59.136 38.619429-105.801143 38.619429h-104.996571V237.714286h104.996571z m-8.850286 40.228571h-49.078857v206.774857h49.078857c35.803429 0 61.952-8.045714 78.445715-24.539428 16.091429-16.091429 24.137143-42.642286 24.137142-78.848 0-35.401143-8.045714-61.549714-24.137142-78.445715-16.493714-16.493714-42.642286-24.941714-78.445715-24.941714z m240.566857-40.228571v127.122285h140.397715v40.228572h-140.397715v79.652571h148.845715v40.228572h-195.913143V237.714286h47.067428z"  horiz-adv-x="1024" />

    
    <glyph glyph-name="copy" unicode="&#59050;" d="M163.043556 611.555556v-625.777778H750.933333v-113.777778H163.043556a113.777778 113.777778 0 0 0-113.777778 113.777778V611.555556h113.777778z m464.896 284.444444a113.777778 113.777778 0 0 0 80.440888-33.336889l217.770667-217.770667a113.777778 113.777778 0 0 0 33.336889-80.440888V156.44444399999998a56.888889 56.888889 0 0 0-56.888889-56.888888h-568.888889a56.888889 56.888889 0 0 0-56.888889 56.888888V839.111111a56.888889 56.888889 0 0 0 56.888889 56.888889h294.229334zM561.265778 782.222222h-170.666667v-568.888889h455.111111V497.777778h-199.111111a85.333333 85.333333 0 0 0-84.935111 77.141333L561.265778 583.1111109999999V782.222222z m113.777778-47.160889V611.555556h123.562666l-123.562666 123.505777z"  horiz-adv-x="1024" />

    
    <glyph glyph-name="download" unicode="&#59052;" d="M974.464 17.855999999999995H96.384c-40.128 0-72.96-32.832-72.96-72.96C23.424-95.168 56.32-128 96.384-128h878.08c40.128 0 72.96 32.832 72.96 72.96 0 40.064-32.832 72.896-72.96 72.896z m-96.64 512.832h-158.848v296.32A69.12 69.12 0 0 1 649.856 896H421.888a69.12 69.12 0 0 1-69.12-69.056v-296.256H193.92a35.072 35.072 0 0 1-25.728-58.88l341.888-369.728a35.2 35.2 0 0 1 51.648 0l341.76 369.728a35.072 35.072 0 0 1-25.664 58.88z"  horiz-adv-x="1088" />

    
    <glyph glyph-name="tick" unicode="&#58978;" d="M1429.66688 862.9153670000001c44.101142-44.101142 44.101142-115.555232 0-159.656374L631.531283-94.87660500000004c-22.45282-22.45282-51.926718-33.423254-81.400616-33.057572a109.704334 109.704334 0 0 0-83.740975 34.520297L32.9113 329.313487c-43.881734 45.929548-43.881734 120.528495 0 166.458042a108.753563 108.753563 0 0 0 158.925012 0l359.976488-351.053868 718.197706 718.197706a112.849192 112.849192 0 0 0 159.656374 0z"  horiz-adv-x="1462" />

    
    <glyph glyph-name="call-phone" unicode="&#58986;" d="M222.37184 896c11.96032 0 23.51104-4.096 32.768-11.4688l4.46464-3.97312L470.2208 669.9008a52.59264 52.59264 0 0 0 3.97312-70.0416l-3.97312-4.42368-83.92704-83.92704c11.59168-38.912 37.92896-111.53408 83.968-157.57312 42.92608-42.96704 109.07648-68.77184 149.34016-81.42848l8.192-2.49856 83.968 83.968a52.59264 52.59264 0 0 0 70.0416 3.93216l4.42368-3.97312 210.65728-210.65728a52.59264 52.59264 0 0 0 3.93216-70.0416l-3.93216-4.42368-158.02368-157.98272c-7.70048-7.7824-17.89952-12.9024-28.672-14.70464l-6.9632-0.69632c-2.49856-0.12288-8.02816-0.32768-16.26112-0.32768l-13.76256 0.16384c-90.03008 2.12992-336.65024 27.4432-535.42912 226.22208C-4.096 363.35616000000005 11.0592 675.26656 11.79648 688.37376a52.4288 52.4288 0 0 0 11.63264 30.1056l3.6864 4.096L185.1392 880.55808C194.9696 890.4704 208.40448 896 222.37184 896z m0-127.13984L116.85888 663.38816l0.73728-18.80064c4.5056-82.98496 32.768-286.67904 194.64192-448.63488 171.6224-171.54048 384.65536-193.536 462.6432-195.3792l4.7104-0.12288 105.59488 105.59488-136.192 136.192-68.15744-68.07552a52.30592 52.30592 0 0 0-42.1888-15.1552l-5.85728 0.86016c-6.02112 1.26976-149.66784 32.19456-237.07648 119.6032-87.40864 87.40864-118.33344 231.0144-119.6032 237.07648a52.67456 52.67456 0 0 0 10.40384 43.66336l3.93216 4.38272 68.07552 68.07552L222.4128 768.86016z m368.10752 21.83168V896c236.50304 0 415.744-175.104 421.6832-409.35424l0.12288-11.96032h-105.30816c0 179.6096-128 310.8864-305.9712 315.84256l-10.52672 0.16384V896v-105.30816z m0.53248-210.65728V685.34272c130.41664 0 206.6432-72.9088 210.49344-200.45824l0.12288-10.19904H696.32c0 73.07264-27.4432 103.17824-97.36192 105.22624l-7.94624 0.12288V685.34272v-105.30816z"  horiz-adv-x="1024" />

    
    <glyph glyph-name="wulaiClose" unicode="&#59041;" d="M512 384m-512 0a512 512 0 1 1 1024 0 512 512 0 1 1-1024 0ZM731.794286 607.451429a54.857143 54.857143 0 0 0 4.900571-71.899429l-4.900571-5.632L589.604571 387.657143l142.189715-142.262857a54.857143 54.857143 0 0 0-71.972572-82.505143l-5.558857 4.900571L512 310.125714 369.737143 167.86285699999996a54.857143 54.857143 0 0 0-82.432 71.972572l4.900571 5.632L434.468571 387.657143 292.205714 529.9200000000001a54.857143 54.857143 0 0 0 71.972572 82.505143l5.558857-4.973714 142.336-142.189715 142.189714 142.189715a54.857143 54.857143 0 0 0 77.531429 0z"  horiz-adv-x="1024" />

    
    <glyph glyph-name="phoneClose" unicode="&#59039;" d="M852.6336 727.9616c18.5344-18.5856 20.5824-47.1552 5.5296-66.3552l-3.7376-4.2496L581.0176 384l273.408-273.408c18.944-18.944 18.176-50.5856-1.792-70.6048-18.5856-18.5344-47.1552-20.5824-66.3552-5.5296l-4.2496 3.7376-273.408 273.408-273.3056-273.408c-18.944-18.944-50.5856-18.176-70.5536 1.792-18.5856 18.5856-20.6336 47.1552-5.632 66.3552l3.7888 4.2496 273.3056 273.408-273.3056 273.3056c-18.944 18.944-18.176 50.5856 1.8432 70.6048 18.5344 18.5344 47.104 20.5824 66.304 5.5296l4.2496-3.7376 273.3056-273.3056 273.408 273.3056c18.944 18.944 50.5856 18.176 70.6048-1.792z"  horiz-adv-x="1024" />

    
    <glyph glyph-name="phoneMenu" unicode="&#59037;" d="M972.8 25.600000000000023a51.2 51.2 0 0 0 5.9904-102.0416L972.8-76.79999999999995H51.2a51.2 51.2 0 0 0-5.9904 102.0416L51.2 25.600000000000023h921.6z m0 409.6a51.2 51.2 0 0 0 5.9904-102.0416L972.8 332.79999999999995H51.2a51.2 51.2 0 0 0-5.9904 102.0416L51.2 435.2h921.6z m0 384a51.2 51.2 0 0 0 5.9904-102.0416L972.8 716.8H51.2a51.2 51.2 0 0 0-5.9904 102.0416L51.2 819.2h921.6z"  horiz-adv-x="1024" />

    
    <glyph glyph-name="phoneOpen" unicode="&#59035;" d="M1022.682112 598.0160000000001L526.656512 78.23360000000002a81.1008 81.1008 0 0 0-29.184 0L1.344512 598.0160000000001c-1.7408 3.9936-1.8432 15.36 0 30.5152l58.368 61.2352c15.1552 1.7408 26.2144 1.8432 29.184 0l408.576-428.2368c9.0112-6.144 20.0704-6.2464 29.184 0l408.576 428.2368c2.8672 1.6384 13.824 1.8432 29.184 0l58.368-61.2352c1.6384-15.0528 1.7408-26.5216 0-30.5152z"  horiz-adv-x="1024" />

    
    <glyph glyph-name="tableSuccess" unicode="&#59036;" d="M512 896c282.768 0 512-229.232 512-512 0-282.768-229.232-512-512-512C229.232-128 0 101.23199999999997 0 384 0 666.768 229.232 896 512 896z m256.56-336.656L454.736 245.51999999999998l-159.728 159.696-45.264-45.248L454.72 154.99199999999996 813.824 514.0799999999999l-45.264 45.264z"  horiz-adv-x="1024" />

    
    <glyph glyph-name="phoneMenuClose" unicode="&#59038;" d="M1.370112 169.98400000000004l496.0256 519.8848a81.1008 81.1008 0 0 0 29.184 0L1022.707712 169.98400000000004c1.7408-3.9936 1.8432-15.36 0-30.5152l-58.368-61.2352c-15.1552-1.7408-26.2144-1.8432-29.184 0l-408.576 428.2368a25.1904 25.1904 0 0 1-29.184 0L88.819712 78.13120000000004c-2.8672-1.6384-13.824-1.8432-29.184 0l-58.368 61.2352c-1.6384 15.0528-1.7408 26.5216 0 30.5152z"  horiz-adv-x="1024" />

    
    <glyph glyph-name="tableClose" unicode="&#59040;" d="M990.9135 862.9135c44.103631-44.103631 44.103631-115.561752 0-159.665383L671.582735 383.990492l319.330765-319.257626a112.855559 112.855559 0 1 0-159.665383-159.665383L511.990492 224.39824899999996l-319.257625-319.330766a112.855559 112.855559 0 1 0-159.665383 159.665383L352.398249 383.990492 33.067484 703.248117A112.855559 112.855559 0 1 0 192.732867 862.9135L511.990492 543.5827340000001 831.248117 862.9135a112.855559 112.855559 0 0 0 159.665383 0z"  horiz-adv-x="1024" />

    
    <glyph glyph-name="titleLeft" unicode="&#59034;" d="M2310.625882 896h-435.139764L1566.117647-117.03717600000004h435.079529zM744.508235 896H309.368471L0-117.03717600000004h435.079529zM1467.331765 896h-435.139765L722.823529-117.03717600000004h435.07953z"  horiz-adv-x="2349" />

    
    <glyph glyph-name="titleRight" unicode="&#59033;" d="M2310.625882 896h-435.139764L1566.117647-117.03717600000004h435.079529zM744.508235 896H309.368471L0-117.03717600000004h435.079529zM1527.567059 896h-435.139765L783.058824-117.03717600000004h435.079529z"  horiz-adv-x="2349" />

    
    <glyph glyph-name="officialRight" unicode="&#59030;" d="M281.632-94.62400000000002l-44.928 45.568 429.44 423.552L270.048 770.592l45.28 45.28 441.216-441.248-34.112-34.144 0.16-0.096-440.96-435.008z"  horiz-adv-x="1024" />

    
    <glyph glyph-name="officialLeft" unicode="&#59031;" d="M746.432 812.864l44.96-45.536-429.44-423.552 396.064-396.128-45.248-45.248L271.52 343.67999999999995l34.112 34.112-0.16 0.128 440.96 434.976z"  horiz-adv-x="1056" />

    
    <glyph glyph-name="wulaiNavCall" unicode="&#59029;" d="M346.026667 599.4666669999999l-3.370667 6.229333-82.090667-82.346667 52.224-195.541333 105.386667-122.88 217.856-65.493333 87.082667 82.261333-102.357334 106.112-58.282666-46.08-121.258667 66.56-38.528 92.842667 45.056 61.141333zM512 384m-512 0a512 512 0 1 1 1024 0 512 512 0 1 1-1024 0ZM622.805333 357.674667a27.392 27.392 0 0 1-38.784 0l-43.690666-43.733334c-20.266667 6.058667-58.112 19.754667-82.090667 43.733334-23.978667 23.978667-37.674667 61.781333-43.690667 82.048l43.690667 43.733333a27.392 27.392 0 0 1 0 38.826667L348.586667 631.893333a27.392 27.392 0 0 1-38.826667 0L227.498667 549.717333a27.306667 27.306667 0 0 1-7.978667-17.792c-0.426667-6.869333-8.277333-169.301333 117.717333-295.253333 109.354667-109.397333 246.570667-117.930667 285.994667-117.930667 6.016 0 9.258667 0.213333 9.258667 0.213334a27.52 27.52 0 0 1 17.792 7.978666l82.304 82.304a27.392 27.392 0 0 1 0 38.784l-109.738667 109.653334z m-3.413333-184.106667c-38.442667 0.597333-152.192 10.624-243.413333 101.802667-91.690667 91.733333-101.12 209.066667-101.76 243.456l54.912 54.954666 70.954666-70.912-35.498666-35.498666a27.434667 27.434667 0 0 1-7.424-25.002667c0.64-3.157333 16.725333-77.952 62.293333-123.477333 45.525333-45.525333 120.32-61.653333 123.477333-62.293334a27.221333 27.221333 0 0 1 25.002667 7.424l35.498667 35.456 70.912-70.912-54.997334-54.997333zM520.874667 640v-54.869333c95.530667 0 164.821333-69.205333 164.821333-164.565334h54.869333c0 125.098667-94.421333 219.434667-219.733333 219.434667zM576 420.565333h54.869333c0 69.717333-40.021333 109.696-109.738666 109.696v-54.826666c39.466667 0 54.869333-15.36 54.869333-54.869334zM346.026667 599.4666669999999l-3.370667 6.229333-82.090667-82.346667 52.224-195.541333 105.386667-122.88 217.856-65.493333 87.082667 82.261333-102.357334 106.112-58.282666-46.08-121.258667 66.56-38.528 92.842667 45.056 61.141333zM512 384m-512 0a512 512 0 1 1 1024 0 512 512 0 1 1-1024 0ZM622.805333 357.674667a27.392 27.392 0 0 1-38.784 0l-43.690666-43.733334c-20.266667 6.058667-58.112 19.754667-82.090667 43.733334-23.978667 23.978667-37.674667 61.781333-43.690667 82.048l43.690667 43.733333a27.392 27.392 0 0 1 0 38.826667L348.586667 631.893333a27.392 27.392 0 0 1-38.826667 0L227.498667 549.717333a27.306667 27.306667 0 0 1-7.978667-17.792c-0.426667-6.869333-8.277333-169.301333 117.717333-295.253333 109.354667-109.397333 246.570667-117.930667 285.994667-117.930667 6.016 0 9.258667 0.213333 9.258667 0.213334a27.52 27.52 0 0 1 17.792 7.978666l82.304 82.304a27.392 27.392 0 0 1 0 38.784l-109.738667 109.653334z m-3.413333-184.106667c-38.442667 0.597333-152.192 10.624-243.413333 101.802667-91.690667 91.733333-101.12 209.066667-101.76 243.456l54.912 54.954666 70.954666-70.912-35.498666-35.498666a27.434667 27.434667 0 0 1-7.424-25.002667c0.64-3.157333 16.725333-77.952 62.293333-123.477333 45.525333-45.525333 120.32-61.653333 123.477333-62.293334a27.221333 27.221333 0 0 1 25.002667 7.424l35.498667 35.456 70.912-70.912-54.997334-54.997333zM520.874667 640v-54.869333c95.530667 0 164.821333-69.205333 164.821333-164.565334h54.869333c0 125.098667-94.421333 219.434667-219.733333 219.434667zM576 420.565333h54.869333c0 69.717333-40.021333 109.696-109.738666 109.696v-54.826666c39.466667 0 54.869333-15.36 54.869333-54.869334z"  horiz-adv-x="1024" />

    
    <glyph glyph-name="close" unicode="&#59032;" d="M1002.533017-1.3711260000000038l-385.381731 385.454873 385.454873 385.30859a73.068201 73.068201 0 0 1 0 103.421858l-1.755393 1.755392a73.287625 73.287625 0 0 1-103.494999 0L512.047177 489.187855 126.592305 874.642728a73.141342 73.141342 0 0 1-103.421858 0L21.415055 872.741053a73.141342 73.141342 0 0 1 0-103.421857l385.454872-385.308591-385.454872-385.454872a73.141342 73.141342 0 0 1 0-103.421858l1.755392-1.682251a73.068201 73.068201 0 0 1 103.421858 0L512.047177 278.833356l385.30859-385.30859a73.141342 73.141342 0 0 1 103.494999 0l1.682251 1.68225a73.068201 73.068201 0 0 1 0 103.421858"  horiz-adv-x="1024" />

    


  </font>
</defs>
</svg>
